<svg width="400px" height="400px" viewBox="0 0 502 502" version="1.1" xmlns="http://www.w3.org/2000/svg" xmlns:xlink="http://www.w3.org/1999/xlink"><defs></defs> <g id="Page-1" stroke="none" stroke-width="1" fill="none" fill-rule="evenodd"><g id="All" transform="translate(1.000000, 1.000000)"><g id="All-without-circles"><g id="Back" stroke-width="2" stroke="#000000"><g id="Group"><rect id="Rectangle-2" x="0" y="0" width="100" height="100"></rect> <rect id="Rectangle-2" x="100" y="0" width="100" height="100"></rect> <rect id="Rectangle-2" x="200" y="0" width="100" height="100"></rect> <rect id="Rectangle-2" x="300" y="0" width="100" height="100"></rect> <rect id="Rectangle-2" x="400" y="0" width="100" height="100"></rect></g> <g id="Group" transform="translate(0.000000, 100.000000)"><rect id="Rectangle-2" x="0" y="0" width="100" height="100"></rect> <rect id="Rectangle-2" x="100" y="0" width="100" height="100"></rect> <rect id="Rectangle-2" x="200" y="0" width="100" height="100"></rect> <rect id="Rectangle-2" x="300" y="0" width="100" height="100"></rect> <rect id="Rectangle-2" x="400" y="0" width="100" height="100"></rect></g> <g id="Group" transform="translate(0.000000, 200.000000)"><rect id="Rectangle-2" x="0" y="0" width="100" height="100"></rect> <rect id="Rectangle-2" x="100" y="0" width="100" height="100"></rect> <rect id="Rectangle-2" x="200" y="0" width="100" height="100"></rect> <rect id="Rectangle-2" x="300" y="0" width="100" height="100"></rect> <rect id="Rectangle-2" x="400" y="0" width="100" height="100"></rect></g> <g id="Group" transform="translate(0.000000, 300.000000)"><rect id="Rectangle-2" x="0" y="0" width="100" height="100"></rect> <rect id="Rectangle-2" x="100" y="0" width="100" height="100"></rect> <rect id="Rectangle-2" x="200" y="0" width="100" height="100"></rect> <rect id="Rectangle-2" x="300" y="0" width="100" height="100"></rect> <rect id="Rectangle-2" x="400" y="0" width="100" height="100"></rect></g> <g id="Group" transform="translate(0.000000, 400.000000)"><rect id="Rectangle-2" x="0" y="0" width="100" height="100"></rect> <rect id="Rectangle-2" x="100" y="0" width="100" height="100"></rect> <rect id="Rectangle-2" x="200" y="0" width="100" height="100"></rect> <rect id="Rectangle-2" x="300" y="0" width="100" height="100"></rect> <rect id="Rectangle-2" x="400" y="0" width="100" height="100"></rect></g></g> <g id="Group-5" transform="translate(60.000000, 40.000000)"><path d="M0,10 L80,10" id="Line" stroke="#4990E2" stroke-width="5" stroke-linecap="square"></path> <polygon id="Triangle-2" fill="#4990E2" transform="translate(78.000000, 10.000000) rotate(-270.000000) translate(-78.000000, -10.000000) " points="78 0 88 20 68 20"></polygon> <polygon id="Triangle-2" fill="#4990E2" transform="translate(190.000000, 98.000000) rotate(-180.000000) translate(-190.000000, -98.000000) " points="190 88 200 108 180 108"></polygon> <polygon id="Triangle-2" fill="#4990E2" transform="translate(190.000000, 198.000000) rotate(-180.000000) translate(-190.000000, -198.000000) " points="190 188 200 208 180 208"></polygon> <polygon id="Triangle-2" fill="#4990E2" transform="translate(190.000000, 298.000000) rotate(-180.000000) translate(-190.000000, -298.000000) " points="190 288 200 308 180 308"></polygon> <polygon id="Triangle-2" fill="#4990E2" transform="translate(290.000000, 398.000000) rotate(-180.000000) translate(-290.000000, -398.000000) " points="290 388 300 408 280 408"></polygon> <polygon id="Triangle-2" fill="#4990E2" transform="translate(178.000000, 10.000000) rotate(-270.000000) translate(-178.000000, -10.000000) " points="178 0 188 20 168 20"></polygon> <polygon id="Triangle-2" fill="#4990E2" transform="translate(278.000000, 310.000000) rotate(-270.000000) translate(-278.000000, -310.000000) " points="278 300 288 320 268 320"></polygon> <polygon id="Triangle-2" fill="#4990E2" transform="translate(378.000000, 410.000000) rotate(-270.000000) translate(-378.000000, -410.000000) " points="378 400 388 420 368 420"></polygon> <path d="M100,10 L180,10" id="Line" stroke="#4990E2" stroke-width="5" stroke-linecap="square"></path> <path d="M200,310 L280,310" id="Line" stroke="#4990E2" stroke-width="5" stroke-linecap="square"></path> <path d="M300,410 L380,410" id="Line" stroke="#4990E2" stroke-width="5" stroke-linecap="square"></path> <path d="M190,20 L190,100" id="Line" stroke="#4990E2" stroke-width="5" stroke-linecap="square"></path> <path d="M190,120 L190,200" id="Line" stroke="#4990E2" stroke-width="5" stroke-linecap="square"></path> <path d="M190,220 L190,300" id="Line" stroke="#4990E2" stroke-width="5" stroke-linecap="square"></path> <path d="M290,320 L290,400" id="Line" stroke="#4990E2" stroke-width="5" stroke-linecap="square"></path></g> <g id="Group-5" transform="translate(40.000000, 60.000000)" stroke="#F6A623"><path d="M20,190 L100,190" id="Line" stroke-width="5" stroke-linecap="square"></path> <polygon id="Triangle-2" fill="#F6A623" transform="translate(98.000000, 190.000000) rotate(-270.000000) translate(-98.000000, -90.000000) " points="98 80 108 100 88 100"></polygon> <polygon id="Triangle-2" fill="#F6A623" transform="translate(10.000000, 77.000000) rotate(-180.000000) translate(-10.000000, -77.000000) " points="10 67 20 87 0 87"></polygon> <polygon id="Triangle-2" fill="#F6A623" transform="translate(10.000000, 177.000000) rotate(-180.000000) translate(-310.000000, -177.000000) " points="310 167 320 187 300 187"></polygon> <polygon id="Triangle-2" fill="#F6A623" transform="translate(310.000000, 277.000000) rotate(-180.000000) translate(-310.000000, -277.000000) " points="310 267 320 287 300 287"></polygon> <polygon id="Triangle-2" fill="#F6A623" transform="translate(410.000000, 377.000000) rotate(-180.000000) translate(-410.000000, -377.000000) " points="410 367 420 387 400 387"></polygon> <polygon id="Triangle-2" fill="#F6A623" transform="translate(198.000000, 190.000000) rotate(-270.000000) translate(-198.000000, -90.000000) " points="198 80 208 100 188 100"></polygon> <polygon id="Triangle-2" fill="#F6A623" transform="translate(398.000000, 290.000000) rotate(-270.000000) translate(-398.000000, -290.000000) " points="398 280 408 300 388 300"></polygon> <polygon id="Triangle-2" fill="#F6A623" transform="translate(298.000000, 190.000000) rotate(-270.000000) translate(-298.000000, -90.000000) " points="298 80 308 100 288 100"></polygon> <path d="M120,190 L200,190" id="Line" stroke-width="5" stroke-linecap="square"></path> <path d="M220,190 L300,190" id="Line" stroke-width="5" stroke-linecap="square"></path> <path d="M320,290 L400,290" id="Line" stroke-width="5" stroke-linecap="square"></path> <path d="M10,0 L10,80" id="Line" stroke-width="5" stroke-linecap="square"></path> <path d="M10,100 L10,180" id="Line" stroke-width="5" stroke-linecap="square"></path> <path d="M310,200 L310,280" id="Line" stroke-width="5" stroke-linecap="square"></path> <path d="M410,300 L410,380" id="Line" stroke-width="5" stroke-linecap="square"></path></g></g></g></g></svg>
